<mxfile host="app.diagrams.net" agent="Mozilla/5.0 (X11; Linux x86_64) AppleWebKit/537.36 (KHTML, like Gecko) Chrome/131.0.0.0 Safari/537.36" version="26.2.6">
  <diagram name="Page-1" id="g1x03Cz-AU-NlqzWH2tW">
    <mxGraphModel dx="1789" dy="523" grid="1" gridSize="10" guides="1" tooltips="1" connect="1" arrows="1" fold="1" page="1" pageScale="1" pageWidth="850" pageHeight="1100" math="0" shadow="0">
      <root>
        <mxCell id="0" />
        <mxCell id="1" parent="0" />
        <mxCell id="vT-IPy4Be42UjkFKCV17-7" style="edgeStyle=orthogonalEdgeStyle;rounded=0;orthogonalLoop=1;jettySize=auto;html=1;exitX=0.75;exitY=0;exitDx=0;exitDy=0;entryX=0.5;entryY=1;entryDx=0;entryDy=0;" edge="1" parent="1" source="OWR8Cldfvte852_5StXf-1" target="vT-IPy4Be42UjkFKCV17-6">
          <mxGeometry relative="1" as="geometry" />
        </mxCell>
        <mxCell id="OWR8Cldfvte852_5StXf-1" value="User service" style="rounded=1;whiteSpace=wrap;html=1;" parent="1" vertex="1">
          <mxGeometry x="120" y="200" width="120" height="60" as="geometry" />
        </mxCell>
        <mxCell id="OWR8Cldfvte852_5StXf-2" value="Order service" style="rounded=1;whiteSpace=wrap;html=1;" parent="1" vertex="1">
          <mxGeometry x="135" y="320" width="120" height="60" as="geometry" />
        </mxCell>
        <mxCell id="OWR8Cldfvte852_5StXf-3" value="Payment service" style="rounded=1;whiteSpace=wrap;html=1;" parent="1" vertex="1">
          <mxGeometry x="135" y="400" width="120" height="60" as="geometry" />
        </mxCell>
        <mxCell id="OWR8Cldfvte852_5StXf-4" value="Notification service" style="rounded=1;whiteSpace=wrap;html=1;" parent="1" vertex="1">
          <mxGeometry x="135" y="480" width="120" height="60" as="geometry" />
        </mxCell>
        <mxCell id="OWR8Cldfvte852_5StXf-6" value="Mysql" style="shape=cylinder3;whiteSpace=wrap;html=1;boundedLbl=1;backgroundOutline=1;size=15;" parent="1" vertex="1">
          <mxGeometry x="470" y="120" width="60" height="80" as="geometry" />
        </mxCell>
        <mxCell id="OWR8Cldfvte852_5StXf-7" style="edgeStyle=orthogonalEdgeStyle;rounded=0;orthogonalLoop=1;jettySize=auto;html=1;exitX=1;exitY=0.5;exitDx=0;exitDy=0;entryX=0;entryY=0.5;entryDx=0;entryDy=0;entryPerimeter=0;" parent="1" source="OWR8Cldfvte852_5StXf-9" target="OWR8Cldfvte852_5StXf-6" edge="1">
          <mxGeometry relative="1" as="geometry" />
        </mxCell>
        <mxCell id="OWR8Cldfvte852_5StXf-8" value="User service" style="rounded=1;whiteSpace=wrap;html=1;" parent="1" vertex="1">
          <mxGeometry x="130" y="210" width="120" height="60" as="geometry" />
        </mxCell>
        <mxCell id="OWR8Cldfvte852_5StXf-9" value="User service" style="rounded=1;whiteSpace=wrap;html=1;" parent="1" vertex="1">
          <mxGeometry x="140" y="220" width="120" height="60" as="geometry" />
        </mxCell>
        <mxCell id="OWR8Cldfvte852_5StXf-10" value="Instances" style="text;html=1;align=center;verticalAlign=middle;resizable=0;points=[];autosize=1;strokeColor=none;fillColor=none;" parent="1" vertex="1">
          <mxGeometry x="120" y="170" width="70" height="30" as="geometry" />
        </mxCell>
        <mxCell id="OWR8Cldfvte852_5StXf-11" value="Using JPA + hibernate we can use transactions implementation for consistence of data" style="text;html=1;align=center;verticalAlign=middle;resizable=0;points=[];autosize=1;strokeColor=none;fillColor=none;" parent="1" vertex="1">
          <mxGeometry x="300" y="290" width="480" height="30" as="geometry" />
        </mxCell>
        <mxCell id="vT-IPy4Be42UjkFKCV17-2" value="" style="endArrow=classic;html=1;rounded=0;entryX=0;entryY=0.5;entryDx=0;entryDy=0;" edge="1" parent="1" target="OWR8Cldfvte852_5StXf-1">
          <mxGeometry width="50" height="50" relative="1" as="geometry">
            <mxPoint x="-150" y="230" as="sourcePoint" />
            <mxPoint x="210" y="280" as="targetPoint" />
          </mxGeometry>
        </mxCell>
        <mxCell id="vT-IPy4Be42UjkFKCV17-4" value="&lt;h1 style=&quot;margin-top: 0px;&quot;&gt;&lt;font style=&quot;font-size: 17px;&quot;&gt;Message&lt;/font&gt;&lt;/h1&gt;&lt;p&gt;user_id: 1&lt;br&gt;name: &quot;Rafa&quot;&lt;br&gt;email: &quot;encinas008@gmail.com&quot;&lt;br&gt;&lt;/p&gt;" style="text;html=1;whiteSpace=wrap;overflow=hidden;rounded=0;" vertex="1" parent="1">
          <mxGeometry x="-140" y="120" width="180" height="100" as="geometry" />
        </mxCell>
        <mxCell id="vT-IPy4Be42UjkFKCV17-6" value="Email Service" style="rounded=1;whiteSpace=wrap;html=1;" vertex="1" parent="1">
          <mxGeometry x="120" y="40" width="120" height="60" as="geometry" />
        </mxCell>
        <mxCell id="vT-IPy4Be42UjkFKCV17-8" value="Send message to gmail, outlook, any provider of email" style="text;html=1;align=center;verticalAlign=middle;resizable=0;points=[];autosize=1;strokeColor=none;fillColor=none;" vertex="1" parent="1">
          <mxGeometry x="40" y="10" width="310" height="30" as="geometry" />
        </mxCell>
      </root>
    </mxGraphModel>
  </diagram>
</mxfile>
